<?xml version="1.0" encoding="utf-8"?>
<!-- Generator: Adobe Illustrator 24.1.2, SVG Export Plug-In . SVG Version: 6.00 Build 0)  -->
<svg version="1.1" id="logo_1_" xmlns="http://www.w3.org/2000/svg" xmlns:xlink="http://www.w3.org/1999/xlink" x="0px" y="0px"
	 viewBox="0 0 100 100" style="enable-background:new 0 0 100 100;" xml:space="preserve">
<path id="cercle" d="M49.67725,86.37402c-20.7666,0-37.66113-16.89453-37.66113-37.66113
	c0-20.76611,16.89453-37.66064,37.66113-37.66064c20.76611,0,37.66064,16.89453,37.66064,37.66064
	C87.33789,69.47949,70.44336,86.37402,49.67725,86.37402z M49.67725,15.05225c-18.56104,0-33.66113,15.1001-33.66113,33.66064
	s15.1001,33.66113,33.66113,33.66113c18.56006,0,33.66064-15.10059,33.66064-33.66113S68.2373,15.05225,49.67725,15.05225z"/>
<path id="lettre" d="M44.13965,53.46094l-3.5,10.60059h-4.50049l11.45068-33.70264h5.25l11.50098,33.70264h-4.65039
	l-3.60059-10.60059H44.13965z M55.18945,50.06006l-3.2998-9.70068c-0.75-2.19971-1.24951-4.2002-1.74951-6.15039h-0.1001
	c-0.5,2.00049-1.0498,4.05029-1.7002,6.10059l-3.30029,9.75049H55.18945z"/>
</svg>
