<svg xmlns="http://www.w3.org/2000/svg" viewBox="0 0 512.22 338.29"><g id="Calque_1" data-name="Calque 1"><path d="M390.75,213.77a10.89,10.89,0,0,0,3-1.79,49.69,49.69,0,0,0,3.56-3.56c.59-.6,4.49-6.63,4.25-7.35a14.34,14.34,0,0,0,1-2,16.2,16.2,0,0,0,2.52-5.31.79.79,0,0,0,.08-.26l0-.09h0s0-.06,0-.08c1.08-2.83,1.45-4.54,2.22-6.94,1.19-2.08,1-2.25,1.41-4.22l.53-1.48c.51-1.6.47-4.26,0-4.57-1.23-.57-2.17.71-2.87,3.49l-.14,1.54-.55,1.45c-1.14,2.46-.8,2.39-1.51,5.16-1.31,1.35-1.3,2.88-1.75,4.85a8.55,8.55,0,0,0-1,2.2l0-.07a69.55,69.55,0,0,0-3.78,6.78,7.66,7.66,0,0,0-2.11,3.07c-.95,1.9-2.85,3.33-4.75,4.75a18.14,18.14,0,0,1-4.4,1.07A16.85,16.85,0,0,1,381,198.81l-.95-5a2.9,2.9,0,0,1-.24-.71,2,2,0,0,1,.24-.47c-.25-7.84,1-9.58,1.62-17.3-.24-1.9.34-3.71,0-5.46l.4-.72a15,15,0,0,0,.71-3.8,15.05,15.05,0,0,1,.71-3.8l-.36.12-.12-.36a.37.37,0,0,0,.48.24,16.06,16.06,0,0,0,.12-3.21,8.34,8.34,0,0,0,.47-4.51c1.07-1.55-.84-2.5-2.14-4a1.2,1.2,0,0,0-1.43-.71,5.26,5.26,0,0,0-3,3,1.28,1.28,0,0,1-.59.6,18,18,0,0,0-2.25,6.29,5.42,5.42,0,0,0-.95,4.28c-1.66,4.51-4.51,9-6.4,14a14.11,14.11,0,0,0-3.21,5.82c-1.66,1-1.9,2.62-3,4.16-.36.12-.12.83-.83,1.07-1.07.36-1.07,1.55-1.9,2.62a40.63,40.63,0,0,1-3.21,3.45A11.46,11.46,0,0,0,352.6,196c-2.61,1.67-4-5-4.4-8.43a33.66,33.66,0,0,0,0-5.94l.47-2.14c.59-7.72,1.77-14.85,4.85-22.21.24-.48.24-.48.12-.84l.24-.47c1.54-1.31,2.61-6.42,6.64-9.75a1.36,1.36,0,0,0,1-.71,13.79,13.79,0,0,1,4.28-3.8,1.94,1.94,0,0,1,1.3.35c.48.24,1.55-.12,1.67.24,1.06.83,4.51,1.66,5.34,5.34.48.24,1,1.66,1.55,1.07s1.19-1.19.59-1.78c0-3.57-3.57-5.94-6.54-7.72-.12-.36-.47-.24-.83-.12-.83-1.31-1.54-1.07-2-1.31a12.42,12.42,0,0,0-6.53.6c-1.78.6-3.33,1.91-5.23,3.33-1.54,1.31-3.2,2.26-4,4.52-.71.24-.95.71-1.07,1.55-.35.12-.71.23-.83,1.07l-.36.11c-1.06,1.55-1.3,3.21-2.37,4.76-.47.95-1.66,2.14-1.54,3.68a21.63,21.63,0,0,1-1.18,3.57,6,6,0,0,0-1.3,4.07l-.49.73a23.15,23.15,0,0,0-3.56,5.51,20.49,20.49,0,0,0-2.14,2.79c-1.3,1.62-2.27,3.23-3.56,4.53l-7.57,8.74c-.65,1-1.82,1.42-2.79,2.39a15.85,15.85,0,0,0-2.59,2.26c-.65,1-2.27,1-2.91,1.94-2.92,1.62-5.18,3.36-8.42,4-1,0-1.62-.65-2.59-.65-1-1-1.29-2.26-1.94-3.56v-.32c-.32-1.3-.32-2.59-.65-3.56,0-2.59.33-4.86.33-7.12a16.46,16.46,0,0,0,.64-3.89l1-6.15,1.85-6.78a9.35,9.35,0,0,0,1.42-4.38v-.33c1-1.29,1.3-1.94,1.3-2.91,1-.65,1-1.94,1.29-2.59,1.3-3.56,3.24-6.8,4.21-10.36a29,29,0,0,0,2.26-4.53v-.32a12.07,12.07,0,0,0,1.21-2.27c.19-.05.37-.12.56-.15,3.13-.76,6.37-5,9.14-6.75l2.27-1.38a2.93,2.93,0,0,0,1.34-1c.84-.65,1.71-1.25,2.54-1.9.39-.57,1.33-1.28,1.45-2.07l.23,0a24.58,24.58,0,0,0,5.21-4.67,14.06,14.06,0,0,0,1.83-2.12l.42-.64c.45-.08.38-.66.8-1l2.79-5a8.45,8.45,0,0,0,1.77-2.34l0-.25a9.66,9.66,0,0,0,2-2.37,16,16,0,0,1,1.51-2.55,5.26,5.26,0,0,0,1.54-2.3l.93-1.69a5.8,5.8,0,0,0,1.12-2.26,5.84,5.84,0,0,1,.94-1.41c.19-.28.61-.61.55-1.11.19-.29-.05-.54.18-.57a54,54,0,0,0,2.86-6.57c.93-2.85,2.59-6.09,3.66-10.55a46.28,46.28,0,0,0,2-8.16,18.19,18.19,0,0,0,.57-4.85c.19-.29.13-.79.29-1.33.28-3.12-.27-7.22-.47-10.52a22.28,22.28,0,0,0-2.31-7.39l0,.06a3.24,3.24,0,0,0-2.83-1.33,4.56,4.56,0,0,0-2.8,1.29c-1.29,1-1.94,2.92-3.23,3.89-.33.32-4.33,5.83-4.66,6.47l-3.56,6.19c-1.29.65-1.61,1.94-2.26,3.24,0,.32-.33.32-.65,1v.32l-4.53,6.23c-.65,1-1.3,1.62-1.3,2.92-.32,1.29-1.29,2.34-1.94,3.64-.64,1-1.62,1.62-2.26,3.24a10,10,0,0,0-1.62,3.23c-.33.33-.65.65-.65,1-1.29,1-1.62,2.67-1.94,4l-1.3,1.94a1.12,1.12,0,0,0-.32.65,6.13,6.13,0,0,0-1.94,3,3.17,3.17,0,0,0-1.3,2.92l-1.94,3.88v.32l-2.91,5.83a6.59,6.59,0,0,0-1.3,2.59c-1.29,1.3-1.29,4.65-2.59,6a25.84,25.84,0,0,0-2.59,5.18c-.32.64-1,1.29-.64,2.26v.93c-1.62.65-1.62,1.74-2,3.36a1.12,1.12,0,0,0-.32.65c-1.94,2.59-3.24,7.44-4.53,10.68-.38.76-.76,1.48-1.12,2.18-.64.75-1.35,1.55-2.36,2.55-.64.33-1.17.45-1.49,1.1-.33,0-.33.32-.65.32-2.59,3.24-6,4.94-9.23,7.53a18.47,18.47,0,0,0-3.19,2.79c-1,1-2.59,1.29-3.56,2.91a5.81,5.81,0,0,0-3.24,2.47,6.55,6.55,0,0,0-2.35.77,34.17,34.17,0,0,1-5.82,3.27c-.33,0-.65.65-1.3.65v-.42l.08-.38a1,1,0,0,1,.37-.82,11,11,0,0,0,.2-3.23,9.61,9.61,0,0,0,.32-4.21V158c.65-.65.33-1.3.33-1.95,1.29-5.18.32-6.59,0-11.77a3.54,3.54,0,0,0-1-2.27c-.33-.64,0-1.62-1-1.94h-.33c-.32-1.29-1.29-1.62-2.26-2.27-.65-.64-1.3-1-1.95-.64a20.94,20.94,0,0,0-6.79,5.18,13.76,13.76,0,0,0-1.95,2.26c-2.26,1.62-1.25,1.18-3.19,3.12l-1.3,1.94a18.94,18.94,0,0,0-3.23,3.88c-.33,0-.33.33-.65.65-.32,0-.32.33-.32.65a16.9,16.9,0,0,0-3.24,3.56c-.33.65-1.3,1.29-1,2.26-1.62,1.3-2.27,2.92-3.56,4.54-.33.32-1,.64-1,1.29-3.24,3.89-6.48,8-9.39,12.22-2.27,2.91-4.21,5.5-6.48,8.09a3.93,3.93,0,0,0-1.61,1.62,56.66,56.66,0,0,0-4.54,4.33A12.86,12.86,0,0,1,213.9,196h-.65c-1.29,0-1.94-.65-2.26-2a75.8,75.8,0,0,1,1-12.09c.32-1.3.32-2.19.64-3.16a56.67,56.67,0,0,0,1.62-6.15,13.13,13.13,0,0,0,1.3-3.15,53.91,53.91,0,0,0,2-6.76c1.29-1.62,1.94-4,2.59-5.58,1.29-1.62.53-1.57,1.5-3.18,0-.33.4-1.44.4-1.76,1-.65,1.29-1.94,1.62-2.91,1.94-2.59,1.42-3.16,2.39-6.07.32-.65,1-.77,1-1.42l1-3.24c.65-.64.32-1.61.32-2.26a2.5,2.5,0,0,0-4.85-1h-.33c-1,1-1.94,1.29-2.91,2.91-1.62,1.94-1.58,1.32-2.55,3.91-.33,0-.16.66-.49,1-1,.64-1,1.61-1.61,2.26l-2,4.21c-1,1.62-.6,2-1.57,4a4.38,4.38,0,0,0-1,1.3,14.1,14.1,0,0,0-1.62,4v.33c-1,1.29-.57,2-.89,3.6-.65.32-.65,1-.65,1.94a1.16,1.16,0,0,0-.32.65c-1.3,1-.77,2.18-1.42,3.8-.65,1.94-1,3.48-1.62,5.75a6.13,6.13,0,0,0-.65,2.59c-1,3.56-1,7.36-1,11.24a10.3,10.3,0,0,0,1,5.3c0,.65,0,1.3.65,1.62l1,2.27c1,1,1.62,2.59,3.89,2.91a2.4,2.4,0,0,0,1.29.65c.65,0,1-.32,1.3-.32,4.85-.65,11-6.52,13.59-10.4a33.51,33.51,0,0,0,2.91-4.29h.33a2.3,2.3,0,0,0,1.29-1.62,5.72,5.72,0,0,0,1.62-2.27l4.21-5.42a21.36,21.36,0,0,0,3.24-4.85c1.62-2.27,3.23-4.53,4.53-6.8a5,5,0,0,0,1.62-2.27c.32-.32.64-.64.64-1a3.19,3.19,0,0,0,1.3-1.62c2.27-1.94,3.56-4.85,5.5-6.79v-.33a2.9,2.9,0,0,0,1.94-1.94c.65-.32,1-.64,1-1.29.32-.33.64-.65,1-.65,1.94-2.59,1.57-1.82,3.84-3.76.65-.33,1-.65,1-1.3.32,0,.65-.32,1-.32l3.56-1.94c1,0,1.18.64,1.18,1.29-.65,1.94,0,.77-.65,2.71a16.81,16.81,0,0,0-.33,4.21v.32c-.64.65-.52,1.95-.52,2.92-.32,1.94-1,3.56-1,5.82,0,.33-.33.65-.33,1.3v.32c-.64,1,0,1.94-.64,2.92a10.23,10.23,0,0,0-.65,4.53c-.32.64-.32,1.94-.65,2.91,0,.32-.32.65-.32,1.29-.33,0-.33.33-.33.65-.32.33-.32,1.3-1,1.62a29.68,29.68,0,0,0-5.18,3.56c-1.94,1-4.2,1.94-5.82,3.88-1,1-2.59,1.3-3.56,2.59-1.94.65-3.24,1.95-4.86,3.24-1,1-2.26,1-2.91,2.27a55.78,55.78,0,0,0-6.8,5.5c-.32,0-.32,0-.65.32-.64,0-1,.33-1.29,1-1.3,1-7.12,5.83-7.77,7.45a12.15,12.15,0,0,0-4.53,4.53c-.32,0-.32.32-.65.65a21.78,21.78,0,0,0-4.53,4.85,70.8,70.8,0,0,0-6.47,7.45,19.61,19.61,0,0,0-3.89,5.18c-1,1-9.71,14.24-10.36,16.83a27.33,27.33,0,0,0-4.2,8.74,7.35,7.35,0,0,0-1.95,3.88c-1,.33-1,1.3-1,2.27a1.12,1.12,0,0,0-.32.64,1.16,1.16,0,0,0-.32.65,61.7,61.7,0,0,0-3.89,15.22c0,1.94-.32,4.2.32,6.15a1.11,1.11,0,0,1,.33.64,9.38,9.38,0,0,0,.65,2.92c.64,2.91,2.91,4.85,5.5,6.47a2.4,2.4,0,0,1,1.29.65,14.83,14.83,0,0,0,5.18,1,21.12,21.12,0,0,0,9.71-2.92,17.11,17.11,0,0,0,4.21-2.26,5.79,5.79,0,0,0,2.27-1.62c.32-.32.32-.32.64-.32a59.47,59.47,0,0,1,5.18-4.21c.65-.65,1.3-1,1.62-1.62l2.92-2.91c1.61-1.94,3.23-3.24,4.2-4.86a3.22,3.22,0,0,0,1.62-1.29c1.3-1.62,3.24-3.24,4.21-5.18.32-.65,1-1,1-1.62.65-.65,1.3-1,1.62-1.62,1-1.29,1.94-2.26,2.26-3.56.65-.65,1.3-1,1.62-1.94a7,7,0,0,0,1.3-1.94c.65-.33,1-.65,1-1.3a13.61,13.61,0,0,0,2.91-4.53,4.53,4.53,0,0,1,1-1.29c.33-1.62,1.95-2.27,2.27-3.89l1.62-2.91a2.8,2.8,0,0,0,1-1.94l.65-1a10.19,10.19,0,0,0,1.61-3.23,1.79,1.79,0,0,0,1-1.62,33,33,0,0,0,2.26-4.86v-1c1.3-.64,1.3-1.94,1.62-2.91,1-2.26,1.29-4.53,2.59-6.47a24,24,0,0,0,1.29-3.56l1.95-4.53c1-2.27,2.59-6.48,2.59-9.07a2.39,2.39,0,0,0,.64-1.94,4.56,4.56,0,0,0,.65-1.94c.65-1.62,1.62-3.24,1.62-4.86v-.32a1.94,1.94,0,0,0,1-1.94,10.25,10.25,0,0,0,.65-2.59l1-3.24a10.15,10.15,0,0,0,.65-2.59V181c.64-.33.32-1,.64-1.3.65-2.91,1.62-5.5,2-8.74,1.29.33,1.94-.64,2.91-1.29,5.09-3.18,10.34-6.45,15.62-10.08.64-.64,1.94-1.29,2.26-2.26.65-.33,1-.65,1-1.3,1.94-1,4.25-2.06,5.22-3.36l4.36-4.24a9,9,0,0,0-1.57,4.41l-1.65,5.66c-.32,2.27-1.94,4.21-1.62,6.8-.64,3.23-1.62,6.47-1.62,9.71,0,1-.32,1.94-.32,2.91-.65,1.62-.32,3.24-.32,5.18a7.3,7.3,0,0,0,.29,3.48,23.69,23.69,0,0,0,1.65,8.82,15.12,15.12,0,0,0,2.91,4.86c.33,0,.65.32,1,.64l1,.65c1,1,3.89,1,4.86,1a4.14,4.14,0,0,0,1.94-.32c1.62-.65,3.24-1.62,4.86-2.27a5.75,5.75,0,0,0,3.56-2.59h.65a30,30,0,0,0,4.85-4.21l2.27-2.26a15.08,15.08,0,0,0,2.26-2.27,46.71,46.71,0,0,0,3.24-4.21l.65-1c.64-.32,1.29-.64,1.29-1.29a68.13,68.13,0,0,0,7.12-10.68,6.21,6.21,0,0,0,1.05-1.45,12.11,12.11,0,0,0-.52,4.32,44.41,44.41,0,0,0-.47,8.08,1.15,1.15,0,0,1-.12.83c-.47,2.14-.23,4,.72,6.89.71,3.33,1.43,6.65,4.16,8.91,1.31,1.54,3.69,1.54,5.23,1.42,5-1.67,7.72-4.17,10.56-8.68a3.76,3.76,0,0,0,1.31-2,31.54,31.54,0,0,0,6-9.15c1.07-1.55,2-2.26,2.14-3.09a3.92,3.92,0,0,0,.95-.72c.35-.12.35-.12.71.95-.59.6.19,1.67.07,2.5,0,2.37-.82,4.63-.47,6.89-.47,2.14,1.19,4,.72,6.18-.36,1.3,0,2.37-.12,3.2l.2.45c0,1.19.72,2.14,1.19,3.57,1,1.66,1.2,3.56,2.15,5.22,1.78,3,5.92,8.79,9.84,8.66A13.27,13.27,0,0,0,390.75,213.77Zm11.4-19.3ZM321,131.42l3.88-8.82c.65-1.62,1.94-3.23,2.27-5.18l1.61-4.32c.65-1.95,1.95-3.24,2.27-4.86.32-.32.65-.65.65-1,.32-1,1-1.94,1.29-2.91a21.37,21.37,0,0,0,1.94-3.89,7.91,7.91,0,0,0,1.3-2.91,1.16,1.16,0,0,0,.32-.65,4.45,4.45,0,0,0,1.62-2.59,4.18,4.18,0,0,0,.65-1.82l1.62-2.59a9.6,9.6,0,0,0,1.94-3.56,21.29,21.29,0,0,0,1.94-3.88,11.15,11.15,0,0,0,1.62-2.59l4.53-8.18a1.28,1.28,0,0,0,.65-1.29c.65-1,1-2.35,1.62-3.64a1.16,1.16,0,0,0,.32-.65c1-.32,1-1.62,1.62-2.27,1-1.94,1.74-4.57,2.71-6.19a5.87,5.87,0,0,1,1.09-1.94c.65-1.62,1.62-3.11,2.27-4.41.38-.38.79-.83,1.2-1.32.11-.2.6-.17.9-.14s.3,3,.3,3c0,1.8.51,6.51.55,8.56a38.48,38.48,0,0,1-.14,4.7l0,.25c-.2.29-.13.79-.29,1.33-.25,1.58-.08,4.33-.59,5.7A7.13,7.13,0,0,0,362,76.6c-.22,0-.19.69-.16.94-.42.33-.35.83-.29,1.33-.45.08-.38.58-.32,1.08-.45.07-.38.57-.32,1.08-.54,1.11-.58,2.37-1.38,3.26a36.81,36.81,0,0,0-2.26,5.46,31.85,31.85,0,0,0-1.71,5.16,9.47,9.47,0,0,0-.89,1.83,2.08,2.08,0,0,0-1.21,1.3l-3.37,6.22a19,19,0,0,0-1,2.23,2.75,2.75,0,0,0-1.32,1c0,.26.07.51-.16.54a3.58,3.58,0,0,0-1.39,1.48l.07.5c-.26-.22-.45.07-.42.32-1.29.72-2.06,3-3.09,3.9-1.42,1.51-3,4.84-4.49,6.1a1.07,1.07,0,0,0-.54,1.11c-.46.08-.85.16-.79.66-1.54.51-2.54,2.71-3.76,3.93a48.82,48.82,0,0,0-5,3.09,10.7,10.7,0,0,0-3.42,2.9c-.87.39-2,1.75-2.62,2.12a18.42,18.42,0,0,0-2.5,1.46C320.12,134.07,320.56,132.58,321,131.42Zm-3.24-1.62v.33h-.33Zm-68.3,103.91a.32.32,0,0,1,.33.32Zm11-53.74c-1,.65-.32,1.95-1,2.92v.32c-1.3,1.62-1.3,3.56-1.62,5.18a4.16,4.16,0,0,0-.32,1.94c-.65.65-.33,1.94-1,2.92-1,1-1,1.94-1.3,3.23-.32.65-.32,1.62-.65,2.59-.32,0-.32.65-.32,1a6.25,6.25,0,0,0-1,2.59c0,.33-.32.65-.32,1a21.7,21.7,0,0,0-2.27,6.48,9.35,9.35,0,0,0-1,3.23c-1,1-.65,2.27-1.3,3.57-.32,0-.32.32-.64.64a81.77,81.77,0,0,0-4.21,9.39c-.33,1-1.3,1.94-1.3,3.24v.64a1.16,1.16,0,0,0-.32.65l-1.94,4.21a11.75,11.75,0,0,0-1.62,2.91,2.94,2.94,0,0,0-1,2.27,3.32,3.32,0,0,0-1,1.62c-.33,0-.65.32-.65,1a15.46,15.46,0,0,0-2.27,3.88c-.64,0-.64.65-.64,1.3l-1,1.61a13.28,13.28,0,0,0-2.27,3.56c-.32,0-.65.33-.65,1-1,.32-1.29,1.29-1.62,2.59a3,3,0,0,0-1.29,1.94,3.4,3.4,0,0,0-1.94,2.26,27.36,27.36,0,0,1-2.59,3.89c-.33,1.29-1.94,1.62-2.27,3.23-1.29,1-1.94,2.27-3.24,3.89-1.29,1-1.94,2.26-3.23,3.56h-.33c-1,.32-1.61,1.29-2.26,2.59l-2.92,2.91c-.32,0-.64.33-1,.65a8.81,8.81,0,0,0-2.59,2.26c-.32,0-.64.33-1,.65-.64,0-1,.33-1.29,1a2.5,2.5,0,0,0-1.3.65,46.64,46.64,0,0,1-5.5,2.27c-1.62,0-2.91.32-4.53.32-3.24-1-5.18-2.59-6.15-5.18a2.7,2.7,0,0,0-.65-2.26,5.59,5.59,0,0,1-.32-2.27,37.4,37.4,0,0,1,1.94-13.6,14.39,14.39,0,0,0,1.62-4.85,4.29,4.29,0,0,0,1-2.59,11.85,11.85,0,0,1,1.62-3.56c.32-.32,4.85-9.71,5.18-10.36,1-2.59,2.91-4.85,3.88-7.44a27.51,27.51,0,0,1,2.27-3.24c1-1,1.29-2.27,1.94-3.24l1-1c2.59-3.56,4.86-6.79,7.45-10,2.26-2.27,3.88-4.53,5.82-6.8h.33c.64,0,1-.65,1.61-1a31.93,31.93,0,0,1,3.24-3.24c2.91-2.91,6.15-5.5,9.06-8.41a165.77,165.77,0,0,1,14.25-11c.32-.32,1-.65,1-1.29,1.29,0,1.94-1.3,2.91-1.62,2.91-1.94,5.83-4.21,8.74-5.83.65-.65,1.3-1.62,2.59-1.29Zm5.5-26.86v-.32h.33Zm.33,3.88a.31.31,0,0,1,.32-.32A.31.31,0,0,1,266.3,157Zm75.31,12.19,0,0v0Z" style="fill:#231f20"/><path d="M190.27,142l.37-.07.61-.11a68.86,68.86,0,0,0,6.77-1.31l1.9-.48.5-.13c1-.26,2-.55,3-.85a5.33,5.33,0,0,0,2.88-.77,7.71,7.71,0,0,1,1.21-.4,38,38,0,0,0,7.27-2.51,10.32,10.32,0,0,0,1.55-.57c.07-.06.09-.06.12-.12.19-.14.14-.37,0-.41s0,0-.1-.05c-.32,0-.54.19-.86.22-1.12.18-1.61.83-2.58.9l-1,.32-3.15.75c-6.22,1.91-12.22,2.09-18.53,2.79v0c-3.79.24-7.65.41-11.71.71-.94.07-2.24-.47-3.15-.09h-1.73a1.55,1.55,0,0,0,0-.21c.62-.38.6-.7.57-1a33.89,33.89,0,0,0,2-4.08l2.15-4.86,0-.15c-.1-1.29,1.19-1.39,1.11-2.36l-.05-.64c.55-1.35,1.46-2.07,1.69-3.38l0-.65c1.21-1.07,1.41-2.7,1.95-4,.25-1,1.19-1.39,1.47-2.06,1.14-2,1.61-4.54,2.77-6.26,1.42-2.71,2.83-5.41,3.92-8.09,1.41-2.71,2.85-5.1,3.94-7.78,1.17-1.71,1.64-4.22,2.8-5.94.62-.37.6-.69.89-1,1.09-2.68,2.21-5,3.62-7.75,1.47-2.06,2.26-4.39,3.37-6.75a49.11,49.11,0,0,0,3.32-7.4,1.16,1.16,0,0,0,.28-.67,9.39,9.39,0,0,0,1.66-3.7l0-.33c1.29-.1,1.19-1.39,1.44-2.38.3-.35.25-1,.52-1.67.32,0,.62-.37.57-1,.52-1.67,1.36-3.36,1.91-4.7l-.28-3.55a13.07,13.07,0,0,0-1.79-2.13,4,4,0,0,0-3-1.07,4.35,4.35,0,0,0-2.51,1.17c-.64.05-1-.24-1.58.45l-7.45,4.48A93,93,0,0,0,190,57.11c0,.33-.3.35-.27.67-.33,0-.3.35-.62.38-2.21.82-3.7,2.56-5.22,4-1.58.45-2.15,1.47-3,2.51-.64,0-.94.4-1.21,1.07a1.5,1.5,0,0,0-1.54,1.09c-.92.73-1.86,1.12-2.43,2.14-1.22,1.07-2.78,1.84-3.65,3.21l-.3.34c-1.58.45-2.45,1.82-3.37,2.54-1.81,1.76-3.65,3.2-5.16,4.62a17.32,17.32,0,0,0-4.84,4.6c-1.24.74-1.81,1.76-3.05,2.51a59.06,59.06,0,0,1-4.22,4.42c-1.56.77-2.4,2.46-3.94,3.56a55.93,55.93,0,0,0-4.52,4.57c-.32,0-.62.37-.91.72-1.54,1.09-2.71,2.8-4.22,4.22-.94.4-1.19,1.39-2.14,1.79-1.56.77-1.76,2.41-3,3.15a4.76,4.76,0,0,1-1.19,1.4c-.32,0-4.26,3.78-4.19,4.74-.62.38-1.29.1-1.56.78a11.27,11.27,0,0,1-2.36,3.1,46,46,0,0,0-6.6,7l-.29.34c-.65,0-1,.4-.92.72-1.24.75-2.16,1.47-2.38,2.79-.3.34-.3.34-.28.67-.32,0-.64,0-.62.37-.94.4-2.67,3.13-2.67,3.13l-5.11,5.27c-1.49,1.74-3.33,3.18-4.47,5.21-.09.14-.21.29-.31.43-3.78.66-7.57,1.86-11.58,2.68l-1.29.1a2.41,2.41,0,0,0-1.27.42l-6.7,1.5c-3.5.92-6.63,2.46-10.13,3.38l-.64.05c-.65.05-1,.08-1.25.75l0,.32c-2.48,1.49-5.71,1.74-8.21,2.91l-5,2.34c-.62.37-1.59.45-2.18,1.14-.94.4-2.56.52-3.45,1.57A178.35,178.35,0,0,0,29.44,174.6a17.47,17.47,0,0,0-3,3.07c-.25,1-.39.38-.59.86a13.09,13.09,0,0,0,1.73-.43c1.45-1.66,3.75-2.81,5.26-4.22a2.74,2.74,0,0,1,2-1.24A12.19,12.19,0,0,0,37.68,171c.34.3,1-.48,1.26-.83l3.72-2.46a66.24,66.24,0,0,1,12.21-5.61c.62-.38,1.3,0,2.16-1a90.15,90.15,0,0,0,9.78-3.69c.65-.05,1,.13,1.27-.22,1.26-.42,3.22-.25,4.12-1.29a1,1,0,0,1,.62-.37c.32,0,.67.27,1-.08L82,152.82c1.92-.47,4.2-.32,6-1.76a4.87,4.87,0,0,0,2.23-.5c.65-.05,1.64.2,1.91-.47a30.88,30.88,0,0,0,3.77-.63c-.91.64-1.36,2-1.85,2.84-.32,0,0,.32.35.3l0,.32c-1.88.8-2.73,2.48-3.89,4.2a56.13,56.13,0,0,0-9.13,12.07c-.59.7-4.71,6.21-4.63,7.18l-.33,0c-1.26.43-1.51,1.42-1.76,2.41l-4.91,7.85c-2.13,1.79-2.92,4.12-4.39,6.19a18.51,18.51,0,0,1-2,3.08l-5.13,9.16a16.15,16.15,0,0,0-2.5,5.39l-.82,2a20.71,20.71,0,0,0-2.23,4.72c-.62.37-.57,1-.52,1.66-.33,0-.65,0-.62.38-1.07,3-3.13,5.76-3.52,9-.65,0-.62.38-.6.7l-.57,1c-.59.69-.86,1.36-.17,2a2.42,2.42,0,0,0,1.32.22,1.17,1.17,0,0,0,.94-.4c.92-.72,1.14-2,2-3.08.8-2.33,1.94-4.37,2.73-6.7a16.35,16.35,0,0,0,2.5-5.39c0-.32,0-.65.27-.67.62-.37.92-.72.87-1.37a56.57,56.57,0,0,0,3.94-7.77l.3-.35a10,10,0,0,0,2-3.08,15.46,15.46,0,0,1,2-4c1.81-1.77,2.58-4.43,4-6.49.9-1,8.16-12,8.38-13.31l0-.32c1.84-1.44,2.63-3.78,4.12-5.52A5.09,5.09,0,0,0,83.88,171a1.16,1.16,0,0,1,.28-.67c.34.3.64-.05.94-.4l3.82-5.16c.84-1.69,2.38-2.79,2.9-4.45,1.11-2.36,3.27-3.83,4.39-6.18.87-1.37,2.43-2.14,3-3.81a17.37,17.37,0,0,0,1.88-1.73l6.18-1.58,1-.07c1.93-.15,3.2-.58,5.14-.73L143,143.86c2,.18,3.58,0,5.22.25l11.62-.9,1.75,0c-1.1,2.79-2.69,5.47-3.58,8.32a37.56,37.56,0,0,0-3.25,8.36c-1.21,1.07-1.09,2.69-1.63,4l-2.38,7c-1.24.75-.82,2-1.06,3-.33,0-.3.35-.28.67-.62.38-.57,1-.86,1.37a24.16,24.16,0,0,1-2.95,8c-.72,3.3-2.43,6.36-3.12,10-.92.72-.15,2.29-.72,3.31a24.34,24.34,0,0,1-1.54,5.31c-.46,2.31-1.9,4.69-1.38,7.25-.32,0-.3.35-.27.67-1.19,1.39-1,3.33-1.56,5-.82,2-.69,3.63-.87,5.59a3.48,3.48,0,0,0-.44,2.63c-.45,2.63-1.56,5-2,7.62a32.78,32.78,0,0,0-.71,7.53,83.21,83.21,0,0,0-.94,8.83c-.57,1-.17,2-.09,2.93l0,.65c-.35,3.92.55,7.1,2.16,7,1.29-.1,3.05-2.51,4.51-8.79,1.26-4.64,2.5-9.61,3.44-14.23l3.66-15.54c1-4,2.31-8,3-11.92a6.15,6.15,0,0,0,.77-2.65,149.25,149.25,0,0,1,6.54-20.32c1.09-2.68,2.13-6,3.2-9,0,0,3.09-6.09,3.07-6.41a11.18,11.18,0,0,1,1.51-5.63c.62-.38.57-1,.52-1.67l1.61-4.34a28.81,28.81,0,0,1,1.91-4.7,22.94,22.94,0,0,0,2.2-5c.75-1.58,1.22-3.13,1.78-4.6l1.59,0c.94-.06,1.59.2,2.52.13a133.59,133.59,0,0,0,14.3-1.58Zm-17.41-25-.59.7a62.36,62.36,0,0,1-4.49,9.11c-.24,1-.84,1.69-.47,2.31l-2.13,6,0,.32c-.8,1.44-1.75,2.89-2.41,4.42h-1.27l-1.29.1-17.5.38c-6.16.16-12.29.64-18.42,1.11l-7.75.6c-1.61.13-3.2.58-4.49.68l-1.29.1-5.45.73a8.06,8.06,0,0,0,1.58-2l8.93-10.44c.92-.72,1.49-1.74,2.73-2.48,1.19-1.39,2.73-2.49,3.57-4.18a15.35,15.35,0,0,1,2.09-2.43,34.08,34.08,0,0,1,3.32-3.18c.59-.7,1.24-.75,1.51-1.42,1-.39,1.17-1.71,2.14-1.79,1.24-.74,2.11-2.31,3-3.35,3.32-3.18,6.62-6.69,9.92-10.19a10.16,10.16,0,0,0,2.73-2.48c.32,0,10-9.42,10.59-10.12.62-.37,6.08-5.34,6.35-6,2.19-1.15,3.35-2.86,5.19-4.3,1.24-.75,2.11-2.11,3.35-2.86.64,0,.59-.69,1.21-1.07a30.07,30.07,0,0,1,4.89-4c1.51-1.41,3.4-2.21,4.57-3.92a4.25,4.25,0,0,1,1.21-1.07,59.34,59.34,0,0,0,8.88-6.86c1.19-1.39,2.81-1.52,4-2.91,1.59-.45,2.45-1.81,4-2.58a7.88,7.88,0,0,0,3.4-2.21c.32,0,1.29-.1,1.59-.45a10.41,10.41,0,0,0,2.82-1.2c.68.28,0,.65.08,1-.92.72-.52,1.67-1.12,2.36-2.35,3.11-10.58,18.35-11,20.66l-2.61,4.1c-.84,1.69-2,3.4-2.82,5.42-.55,1.34-1.44,2.38-2,3.72-.65.05-.92.72-1.2,1.39a49.28,49.28,0,0,0-3.17,5.32c-.59.7-1.21,1.07-1.14,2l-2.28,4.07a33.63,33.63,0,0,0-2,3.73c-.52,1.66-2,3.08-2.53,5.06l.05.65a10.55,10.55,0,0,0-2.58,4.62C173.33,114.65,173.44,115.94,172.86,117Z" style="fill:#231f20"/></g><g id="Calque_2" data-name="Calque 2"><path d="M374.56,229.88l-.81-.2-.81-.2a14.2,14.2,0,0,0-1.62-.2,5.73,5.73,0,0,0-1.31-.11h-6.78a80.61,80.61,0,0,0-8.5.51c-2.83,0-4.25.71-4.65,3.64a1.11,1.11,0,0,0-.41,1,4.27,4.27,0,0,1,.1,1.22v.4a1.74,1.74,0,0,1,0,1,.78.78,0,0,0-.1.51c-.1.2-.1.4-.2.51a9,9,0,0,0-.2,1.11,2,2,0,0,0,.3,1v1.21c-.1,1.12-.1,2.13-.1,3.14v3.13c-.1,2.13-.1,4.25,0,6.38a2.23,2.23,0,0,0-.1.81,2.28,2.28,0,0,1-.1.81,1.78,1.78,0,0,0,.5,1.62v1.41a5.93,5.93,0,0,1-.1,1.52,44.41,44.41,0,0,0,0,5.16,33.45,33.45,0,0,0,.51,5.16c0,.5,0,.81.1.91a1.46,1.46,0,0,0,.91,1.31,3.28,3.28,0,0,0,1.42.3c3.33.21,6.77.31,10.11.31a55.39,55.39,0,0,0,10-.71c1,0,2.32-.1,2.52-1.31.11-.71,0-1.22-.5-1.42l-2.93-.51A13.78,13.78,0,0,0,369,269h-1.41a30.43,30.43,0,0,0-4.35.4H360.9a17.18,17.18,0,0,1-2.32-.1h-4.86c.2-5.05.2-9.91.2-15,.1-.1.3-.1.41-.2a.6.6,0,0,0,.4-.1h6.37c2,0,5-.1,6.78-1.11.4-.21.61-.61.51-1.32s-.41-1.11-.81-1.21A20.23,20.23,0,0,0,363,250H361.2c-.6.1-1.21.1-1.71.21s-1.22.1-1.83.2-1.21.1-1.82.2h-.4a1.64,1.64,0,0,1-1.22-.4c-.3-.21-.4-.71-.3-1.42l.3-1.52a1.87,1.87,0,0,0-.4-1.31c-.1-.1-.1-.41-.1-.81l.2-2a13.74,13.74,0,0,0-.1-2,24.61,24.61,0,0,1,0-3.84,2.86,2.86,0,0,0,.1-.91v-2.73a3.49,3.49,0,0,1,1.11-.11h3c1.11-.1,2.12-.1,3.24-.1h3.23c1.12,0,2.13,0,3.24-.1s2.12,0,3.24-.1a5.84,5.84,0,0,0,1.51-.1,6.15,6.15,0,0,0,2.73-.51c.31-.1.51-.4.61-1C376.07,230.69,375.67,230.08,374.56,229.88ZM353,233.52v-.1h.1Z" style="fill:#231f20"/><path d="M420,230.19h-1.21l-3.95.3c-1.31.1-2.73.1-4,.1H398.93c-.2,0-.3,0-.4-.1H398a1.43,1.43,0,0,0-1.21.61H396a2.26,2.26,0,0,1-.81-.1,2.06,2.06,0,0,0-.81-.11h-.81a7.69,7.69,0,0,0-2.63.51,2.54,2.54,0,0,1-1-.1h-1a3.41,3.41,0,0,0-1.82.51c-1,.3-1.32.91-1,1.82a1.89,1.89,0,0,0,1.92,1.21h2.63a23.13,23.13,0,0,0,2.63-.1l5.16-.3a16.39,16.39,0,0,1,3.33-.31,5.69,5.69,0,0,1,2.94.71c-.1,2-.2,4-.2,6.07v7.28a3.79,3.79,0,0,0,.1,1.11v1c-.1.4-.1.81-.21,1.11-.1,1.72-.2,3.44-.2,5.16a46.18,46.18,0,0,0,.1,5.26l.31,5.16c.1,1.72.1,3.44.1,5.16.1.6.3.91.6,1l.92.3c.91,0,1.72-.1,1.72-1.21A5,5,0,0,1,408,271v-1.21c.1-1.92.3-3.75.4-5.57a49.72,49.72,0,0,0,0-5.46c-.1-1.82-.1-3.64-.2-5.46s-.1-3.64-.2-5.56a14.43,14.43,0,0,1,0-2.94,26.92,26.92,0,0,1,.2-2.83,21.38,21.38,0,0,0-.1-5.66,2.18,2.18,0,0,1,2.32-2.63c0-.11,0-.21.11-.21h.1l-.21.21a1.7,1.7,0,0,0,1.22.5l11.33-.61h.91a2.27,2.27,0,0,0,.91-.1,1.86,1.86,0,0,0,1.31-.7c.21-.31,0-.71-.6-1.32A9.82,9.82,0,0,0,420,230.19Z" style="fill:#231f20"/><path d="M470,263.06c-.41,0-1.21.81-1.42,1a5.58,5.58,0,0,1-.91.81c-3.94,3.95-7,5.26-12.64,5.26a3.44,3.44,0,0,1-1-.1c-6.48-1-10.72-3.74-12.95-10.11a16,16,0,0,1-.81-2.33,5.85,5.85,0,0,1-.4-2.23l.3-9a2.62,2.62,0,0,0,.91-1.72c1.62-5.76,5.77-9.3,10.92-11.93a28.55,28.55,0,0,1,5.77-.81,15,15,0,0,1,5.77,1.11,3.19,3.19,0,0,1,1.72.91,3.39,3.39,0,0,0,1.72,1h.3a.37.37,0,0,0,.3.1,1.37,1.37,0,0,0,1.11-.4c.51-.51.51-.91,0-1.22l-1-1a11.15,11.15,0,0,1-1.11-1,4.26,4.26,0,0,0-2.73-1.21c-.51-.91-1.11-.91-2.13-.91a9.44,9.44,0,0,0-4.75-.81c-6.37,0-13.25,2.73-17.2,7.89a16.92,16.92,0,0,0-4.45,10l-.2,1.11a24.35,24.35,0,0,0,.1,8.1c.61,2.42,1.62,5.56,3.24,7.48a3.19,3.19,0,0,0,.91,1.72,15.28,15.28,0,0,0,6.47,6.17c.71,1.62,7,2.43,9.11,2.43a19.36,19.36,0,0,0,10.62-3.14,9,9,0,0,0,2.73-2.12,12.2,12.2,0,0,1,1.11-1.21,12.41,12.41,0,0,0,1.12-1.22c.7-.91.81-1.62.1-2.33A.9.9,0,0,0,470,263.06Zm-26.4-26.7h.1c-.1,0-.1,0-.1.1Z" style="fill:#231f20"/><path d="M485.41,267.92a2.73,2.73,0,0,0-1.92-.81.37.37,0,0,1-.3.1,2.18,2.18,0,0,0-1.42,1,2.5,2.5,0,0,0-.6,1.62,2.42,2.42,0,0,0,.4,1.52,2,2,0,0,0,1.72,1,2.81,2.81,0,0,0,2-.61,3.91,3.91,0,0,0,.71-1.92A2.31,2.31,0,0,0,485.41,267.92Z" style="fill:#231f20"/></g></svg>